<svg width="200" height="200" viewBox="0 0 200 200" fill="none" xmlns="http://www.w3.org/2000/svg">
<rect width="200" height="200" rx="15" fill="#03203C"/>
<path d="M21 179H52V193H21V179Z" fill="url(#paint0_linear)"/>
<rect x="21" y="159" width="31" height="14" fill="url(#paint1_linear)"/>
<rect x="64" y="179" width="31" height="14" fill="url(#paint2_linear)"/>
<rect x="64" y="159" width="31" height="14" fill="url(#paint3_linear)"/>
<rect x="64" y="139" width="31" height="14" fill="url(#paint4_linear)"/>
<rect x="108" y="179" width="31" height="14" fill="url(#paint5_linear)"/>
<rect x="151" y="179" width="31" height="14" fill="url(#paint6_linear)"/>
<rect x="151" y="159" width="31" height="14" fill="url(#paint7_linear)"/>
<rect x="151" y="139" width="31" height="14" fill="url(#paint8_linear)"/>
<rect x="151" y="119" width="31" height="14" fill="url(#paint9_linear)"/>
<path d="M116.2 68.36C116.6 68.36 116.8 68.8 116.8 69.68C116.8 70.56 116.76 71.44 116.68 72.32C115.4 87.52 111.6 98.64 105.28 105.68C103.2 108 99.8 109.24 95.08 109.4C89.32 107.32 86.44 102.24 86.44 94.16C86.44 92.72 86.6 90.92 86.92 88.76C87.24 86.52 89.92 71 94.96 42.2C87.92 56.44 83.4 73.8 81.4 94.28C81.16 96.68 80.96 98.48 80.8 99.68C80.48 102.24 79.4 103.52 77.56 103.52C75.08 103.52 72.44 101.64 69.64 97.88C68.68 96.6 68.2 95 68.2 93.08C68.2 91.16 68.24 89.04 68.32 86.72C68.48 84.4 68.72 81.84 69.04 79.04C69.36 76.24 69.6 74 69.76 72.32C69.92 70.64 70.28 68.08 70.84 64.64C71.48 61.2 71.88 59 72.04 58.04C72.2 57 72.64 54.44 73.36 50.36C74.16 46.28 74.6 44 74.68 43.52C73.48 44.72 72.4 46.52 71.44 48.92C70.56 51.32 69.84 53.28 69.28 54.8C68.72 56.24 68.16 58 67.6 60.08C67.04 62.16 66.56 63.96 66.16 65.48C65.76 67 65.28 68.84 64.72 71C64.24 73.16 63.88 74.8 63.64 75.92C63.08 78 62.16 81.88 60.88 87.56C59.6 93.24 58.76 96.84 58.36 98.36C58.04 99.8 57.76 101 57.52 101.96C57.36 102.84 57.2 103.48 57.04 103.88C56.96 104.2 56.76 104.68 56.44 105.32C55.8 106.44 54.76 107 53.32 107C51.96 107 50.76 106.52 49.72 105.56C48.76 104.52 48.12 103.64 47.8 102.92C47.48 102.12 47.04 101.04 46.48 99.68C46 98.24 45.76 97.12 45.76 96.32C45.76 95.52 46 94.12 46.48 92.12C46.96 90.12 47.52 87.64 48.16 84.68C48.88 81.72 49.32 79.84 49.48 79.04C49.72 78.16 50.12 76.36 50.68 73.64C51.32 70.92 51.76 69 52 67.88C52.24 66.76 52.6 65 53.08 62.6C53.56 60.12 53.92 58.2 54.16 56.84C54.4 55.4 54.72 53.6 55.12 51.44C55.52 49.2 55.84 47.24 56.08 45.56C56.88 40.28 57.36 36.6 57.52 34.52V33.68C57.52 32.24 57.2 31.52 56.56 31.52C55.92 31.52 54.88 32.64 53.44 34.88C52 37.12 51 38.84 50.44 40.04C49.88 41.24 49.48 42.88 49.24 44.96C48.12 56.08 45.24 65.12 40.6 72.08C40.04 72.88 39.16 73.28 37.96 73.28C36.76 73.28 35.48 72.64 34.12 71.36C32.84 70.08 32.2 68.76 32.2 67.4C32.2 59.24 34.96 49.8 40.48 39.08C42.64 35 44.4 28.96 45.76 20.96C47.92 24.16 49.24 26.28 49.72 27.32C50.28 28.36 50.88 28.88 51.52 28.88C51.84 28.88 52.56 28.4 53.68 27.44C54.8 26.48 56.44 26 58.6 26C60.84 26 62.64 26.56 64 27.68C65.36 28.8 66.2 30.08 66.52 31.52C66.92 32.96 67.2 35.12 67.36 38C67.84 37.6 68.68 36.84 69.88 35.72C72.44 33.48 74.68 32.36 76.6 32.36C78.6 32.36 80.36 33.44 81.88 35.6C83.48 37.68 84.2 39.84 84.04 42.08C85 40.96 86.76 38.2 89.32 33.8C91.16 30.92 93.6 29.48 96.64 29.48C101.68 29.48 104.2 31.76 104.2 36.32C104.2 38.4 103.24 44.16 101.32 53.6C99.4 63.04 98 70.84 97.12 77C96.24 83.08 95.8 88.84 95.8 94.28V96.56C98.44 94.32 101 91.52 103.48 88.16C106.04 84.72 107.92 82 109.12 80C110.32 77.92 112.2 74.6 114.76 70.04C115.48 68.92 115.96 68.36 116.2 68.36ZM126.021 78.08C126.021 62.88 127.941 48.88 131.781 36.08C130.181 37.2 128.861 38.44 127.821 39.8C125.181 43.24 122.541 44.96 119.901 44.96C117.341 44.96 116.061 43.24 116.061 39.8C116.061 34.36 117.901 30.64 121.581 28.64C124.781 26.8 128.501 25.16 132.741 23.72C137.061 22.2 140.781 21.44 143.901 21.44C150.941 21.44 156.701 24.2 161.181 29.72C165.661 35.24 167.901 41.56 167.901 48.68C167.901 53.08 167.141 57.64 165.621 62.36C163.221 69.56 158.621 74.32 151.821 76.64C148.141 77.92 144.741 78.56 141.621 78.56C138.501 78.56 136.141 77.8 134.541 76.28V81.44C134.541 87.68 134.901 93.92 135.621 100.16L135.741 101.96C135.741 104.6 134.501 106.56 132.021 107.84C130.261 108.8 128.661 109.28 127.221 109.28C125.781 109.28 124.261 107.96 122.661 105.32C120.021 101.08 117.781 95.04 115.941 87.2C115.701 86.16 115.581 85.32 115.581 84.68C115.581 83.96 115.901 83.6 116.541 83.6C117.101 83.6 118.621 85 121.101 87.8C123.661 90.6 125.181 92 125.661 92C126.141 92 126.381 91.28 126.381 89.84L126.021 78.08ZM161.541 44.6C161.541 39.96 159.941 36.52 156.741 34.28C153.541 32.04 149.461 30.92 144.501 30.92C141.541 30.92 139.141 31.52 137.301 32.72C137.701 34.48 137.901 35.92 137.901 37.04C137.901 38.08 137.821 39.36 137.661 40.88C137.501 42.4 137.221 44.96 136.821 48.56C136.421 52.16 136.141 54.88 135.981 56.72C138.141 54.16 141.501 52.88 146.061 52.88C147.261 52.88 147.861 53.08 147.861 53.48C147.861 53.8 147.461 53.96 146.661 53.96C141.221 53.96 138.501 55.6 138.501 58.88C138.501 62.72 139.981 64.64 142.941 64.64C143.501 64.64 144.261 64.56 145.221 64.4C156.101 62.08 161.541 55.48 161.541 44.6Z" fill="#11998E"/>
<defs>
<linearGradient id="paint0_linear" x1="22.5" y1="181" x2="52" y2="193" gradientUnits="userSpaceOnUse">
<stop stop-color="#3494E6"/>
<stop offset="0.979167" stop-color="#EC6EAD"/>
</linearGradient>
<linearGradient id="paint1_linear" x1="52" y1="159" x2="21" y2="173" gradientUnits="userSpaceOnUse">
<stop offset="0.0625" stop-color="#3494E6"/>
<stop offset="0.973958" stop-color="#EC6EAD"/>
</linearGradient>
<linearGradient id="paint2_linear" x1="64" y1="180.5" x2="88" y2="190.5" gradientUnits="userSpaceOnUse">
<stop stop-color="#FC4A1A"/>
<stop offset="1" stop-color="#F7B733"/>
</linearGradient>
<linearGradient id="paint3_linear" x1="64" y1="161" x2="93" y2="173" gradientUnits="userSpaceOnUse">
<stop offset="0.140625" stop-color="#FDC830"/>
<stop offset="1" stop-color="#F37335"/>
<stop offset="1" stop-color="#F37335"/>
</linearGradient>
<linearGradient id="paint4_linear" x1="64" y1="139" x2="95" y2="153" gradientUnits="userSpaceOnUse">
<stop stop-color="#F12711"/>
<stop offset="0.9999" stop-color="#F5AB19"/>
<stop offset="1" stop-color="#F5AF19"/>
</linearGradient>
<linearGradient id="paint5_linear" x1="108" y1="181" x2="139" y2="193" gradientUnits="userSpaceOnUse">
<stop stop-color="#7EE8FA"/>
<stop offset="0.942708" stop-color="#E4939D"/>
</linearGradient>
<linearGradient id="paint6_linear" x1="150" y1="180.5" x2="182" y2="193" gradientUnits="userSpaceOnUse">
<stop stop-color="#11998E"/>
<stop offset="1" stop-color="#38EF7D"/>
</linearGradient>
<linearGradient id="paint7_linear" x1="182" y1="159" x2="151" y2="173" gradientUnits="userSpaceOnUse">
<stop offset="0.0885417" stop-color="#11998E"/>
<stop offset="1" stop-color="#38EF7D"/>
</linearGradient>
<linearGradient id="paint8_linear" x1="150" y1="140.5" x2="182" y2="153" gradientUnits="userSpaceOnUse">
<stop stop-color="#11998E"/>
<stop offset="1" stop-color="#38EF7D"/>
</linearGradient>
<linearGradient id="paint9_linear" x1="182" y1="133" x2="151" y2="119" gradientUnits="userSpaceOnUse">
<stop stop-color="#11998E"/>
<stop offset="1" stop-color="#38EF7D"/>
</linearGradient>
</defs>
</svg>
